<?xml version="1.0" standalone="no"?>
<!DOCTYPE svg PUBLIC "-//W3C//DTD SVG 20010904//EN"
 "http://www.w3.org/TR/2001/REC-SVG-20010904/DTD/svg10.dtd">
<svg version="1.0" xmlns="http://www.w3.org/2000/svg"
 width="499.000000pt" height="499.000000pt" viewBox="0 0 499.000000 499.000000"
 preserveAspectRatio="xMidYMid meet">

<g transform="translate(0.000000,499.000000) scale(0.100000,-0.100000)"
fill="#000000" stroke="none">
<path d="M2631 4460 c-1 -64 -5 -81 -27 -113 -31 -47 -87 -157 -82 -163 3 -2
24 34 47 81 56 109 80 130 45 39 -36 -95 -41 -123 -7 -44 l27 65 9 -43 c8 -41
6 -48 -27 -98 -57 -85 -34 -63 30 29 85 122 82 126 57 -53 -3 -25 -3 -42 1
-39 5 5 36 230 36 264 0 6 -12 -15 -27 -45 l-27 -55 -6 55 c-3 39 -1 62 10 79
13 22 13 23 -8 17 -18 -6 -22 -3 -22 16 -1 13 -7 37 -15 53 -13 29 -13 27 -14
-45z"/>
<path d="M2364 4488 c3 -13 6 -30 7 -38 0 -8 4 -4 8 10 7 24 7 24 30 -13 13
-21 25 -36 28 -34 6 7 -59 97 -70 97 -5 0 -7 -10 -3 -22z"/>
<path d="M2507 4447 c-8 -81 -24 -127 -38 -107 -8 11 -9 9 -4 -10 4 -14 10
-74 14 -135 6 -107 6 -109 20 -75 8 19 15 51 16 70 1 19 7 71 13 115 8 52 9
99 3 135 -5 30 -7 58 -4 63 2 4 0 7 -5 7 -5 0 -12 -28 -15 -63z"/>
<path d="M2223 4484 c3 -11 9 -35 12 -54 10 -51 39 -136 69 -204 16 -36 26
-76 26 -105 l0 -46 -26 60 c-14 33 -29 71 -33 85 -10 29 -52 102 -57 98 -1 -2
13 -35 32 -73 18 -39 43 -98 55 -133 11 -34 25 -60 30 -56 19 11 9 223 -16
339 -10 48 9 10 36 -69 12 -38 24 -65 26 -59 6 17 -61 188 -72 185 -11 -3 -10
-28 6 -88 19 -71 5 -85 -19 -19 -12 33 -29 73 -37 88 -8 16 -15 35 -15 42 0 8
-5 17 -11 21 -7 4 -9 0 -6 -12z"/>
<path d="M2387 4380 c3 -25 9 -54 14 -65 14 -36 9 25 -6 70 l-14 40 6 -45z"/>
<path d="M2080 4396 c0 -28 61 -152 101 -206 27 -36 49 -73 49 -82 0 -24 -2
-23 -41 13 -48 45 -148 111 -161 107 -6 -2 8 -19 30 -36 38 -31 139 -168 130
-177 -2 -2 -38 29 -81 70 -42 40 -77 70 -77 66 0 -16 101 -137 137 -165 21
-16 53 -48 71 -70 l34 -40 -26 -19 c-30 -21 -33 -43 -11 -67 15 -16 10 -22
-52 -68 -38 -28 -78 -61 -88 -74 -16 -19 -15 -19 10 3 17 15 58 47 93 72 54
40 67 45 88 37 14 -6 57 -13 96 -17 l72 -6 -22 30 c-28 40 -28 43 7 43 19 0
30 -6 34 -17 2 -10 8 -25 12 -35 4 -11 1 -18 -12 -21 -10 -3 28 -5 84 -5 88 0
106 -2 131 -21 17 -11 33 -21 37 -21 24 0 184 -125 330 -259 75 -69 280 -278
344 -350 31 -35 81 -92 112 -125 31 -34 87 -99 124 -146 36 -47 72 -92 78
-100 7 -8 45 -59 85 -113 40 -53 76 -97 78 -97 14 0 -212 296 -336 440 -30 35
-66 78 -80 94 -233 275 -549 564 -729 666 -44 25 -59 39 -55 50 19 45 16 60
-15 77 -17 10 -31 24 -31 31 0 8 22 37 49 65 68 72 151 171 151 180 0 14 -14
6 -82 -49 -38 -31 -71 -54 -73 -52 -2 2 2 22 10 43 8 22 14 47 14 55 0 25 -56
-131 -69 -195 -7 -33 -16 -63 -19 -67 -13 -15 -219 -21 -265 -8 -43 12 -46 16
-116 139 -40 69 -88 145 -107 169 -19 23 -31 42 -26 42 4 0 36 -25 70 -55 33
-30 64 -55 67 -55 11 0 6 50 -15 145 -11 52 -17 100 -14 105 4 6 1 17 -5 25
-23 28 -28 15 -14 -32 8 -25 12 -48 10 -50 -2 -2 -25 24 -52 59 -58 77 -64 84
-64 74z m190 -570 c0 -8 3 -21 6 -30 8 -21 -10 -21 -30 0 -22 22 -20 44 4 44
11 0 20 -6 20 -14z m59 -22 c15 -33 14 -44 -3 -44 -18 0 -46 38 -46 61 0 25
35 13 49 -17z m336 6 c21 -24 14 -53 -12 -43 -24 9 -54 43 -47 54 9 15 40 10
59 -11z m-258 -28 l23 -27 -27 -3 c-29 -4 -63 26 -63 55 0 22 41 7 67 -25z
m206 3 c38 -38 37 -45 -4 -45 -20 0 -33 9 -47 32 -37 58 -3 67 51 13z m-65
-10 l22 -35 -29 0 c-27 0 -61 33 -61 60 0 25 46 8 68 -25z"/>
<path d="M2440 4393 c0 -4 5 -15 10 -23 8 -13 10 -13 10 2 0 9 -4 20 -10 23
-5 3 -10 3 -10 -2z"/>
<path d="M2410 4243 l-1 -48 -14 30 c-19 42 -17 22 5 -60 l19 -70 0 98 c1 53
-1 97 -4 97 -3 0 -5 -21 -5 -47z"/>
<path d="M2566 4168 c-8 -33 -7 -58 2 -58 5 0 9 18 10 40 2 45 -3 51 -12 18z"/>
<path d="M2384 4035 c0 -49 1 -71 3 -48 2 23 2 64 0 90 -2 26 -3 8 -3 -42z"/>
<path d="M2513 4068 c-26 -55 -46 -118 -41 -124 3 -2 11 15 18 38 7 24 21 60
32 81 11 22 17 41 15 43 -2 3 -13 -15 -24 -38z"/>
<path d="M2619 4063 c-7 -21 -25 -66 -41 -101 -16 -35 -28 -73 -26 -85 5 -34
78 117 85 175 7 58 -1 62 -18 11z"/>
<path d="M2302 3955 c12 -24 23 -43 26 -41 4 5 -36 86 -43 86 -3 0 5 -20 17
-45z"/>
<path d="M2620 3657 c0 -4 28 -76 63 -160 35 -83 71 -181 81 -217 10 -36 29
-99 42 -140 21 -69 23 -72 23 -35 1 22 -6 81 -13 130 -13 79 -24 109 -97 250
-76 150 -99 189 -99 172z"/>
<path d="M1924 3487 c-191 -195 -309 -332 -475 -557 -86 -116 -226 -321 -269
-395 -43 -75 -4 -21 100 135 200 302 430 589 652 815 75 76 136 140 134 142
-1 1 -65 -61 -142 -140z"/>
<path d="M2426 3423 c-3 -16 -8 -91 -10 -168 l-5 -140 9 120 c4 66 11 141 14
167 7 52 2 65 -8 21z"/>
<path d="M2919 3321 c23 -33 233 -458 245 -499 4 -12 19 -42 32 -65 l25 -42
-6 35 c-26 134 -91 304 -125 325 -6 3 -19 23 -30 43 -24 44 -31 55 -93 149
-27 40 -54 76 -60 80 -6 4 -1 -8 12 -26z"/>
<path d="M1963 3306 c-4 -8 -26 -34 -48 -58 -244 -265 -341 -413 -385 -583
-10 -38 -22 -79 -26 -90 -16 -46 14 4 40 65 36 82 77 145 160 245 36 44 85
116 108 160 43 83 130 219 148 230 16 10 32 45 21 45 -6 0 -14 -6 -18 -14z"/>
<path d="M2149 3188 c-105 -118 -190 -232 -233 -313 -28 -52 -31 -63 -14 -44
13 14 46 40 75 58 29 18 55 42 59 54 4 12 49 89 101 170 52 82 93 151 90 153
-3 3 -38 -32 -78 -78z"/>
<path d="M2402 3077 c-1 -15 -9 -42 -18 -58 -8 -17 -13 -33 -10 -36 10 -11 37
60 33 90 -4 30 -4 30 -5 4z"/>
<path d="M3356 3053 c10 -10 41 -50 71 -90 29 -39 57 -74 62 -78 6 -3 24 -27
41 -52 161 -238 226 -331 242 -348 19 -20 19 -20 12 10 -25 102 -130 255 -296
430 -41 44 -88 95 -103 113 -15 17 -31 32 -37 32 -5 0 -2 -8 8 -17z"/>
<path d="M2205 2602 c-89 -182 -165 -425 -165 -526 0 -25 -4 -46 -9 -46 -9 0
-21 48 -21 88 0 34 -11 22 -49 -53 l-31 -60 0 73 c0 39 -4 72 -8 72 -13 0 -68
-62 -85 -95 l-15 -30 -11 28 c-6 16 -11 44 -11 63 0 19 -4 34 -9 34 -4 0 -23
-32 -41 -71 l-32 -70 -14 26 c-7 14 -16 48 -20 76 -4 27 -10 49 -14 49 -4 0
-17 -21 -28 -47 -19 -42 -21 -45 -22 -20 -1 99 64 301 151 467 64 124 48 116
-35 -18 -110 -178 -138 -234 -187 -377 -21 -60 -38 -105 -38 -100 -1 18 38
162 53 200 21 50 20 64 -3 40 -23 -24 -151 -250 -151 -267 0 -8 -3 -8 -9 -2
-6 5 -11 32 -13 59 l-3 50 -30 -58 -30 -57 -10 57 -10 57 -55 -67 c-44 -53
-56 -62 -58 -47 -5 33 26 167 54 233 14 34 40 96 58 137 17 42 44 97 59 124
49 81 22 62 -48 -36 -69 -96 -151 -253 -181 -345 -9 -29 -20 -51 -24 -48 -4 3
-24 -16 -44 -42 -40 -52 -46 -40 -17 37 22 58 14 56 -50 -15 -76 -85 -74 -78
-32 -118 31 -31 34 -38 23 -52 -23 -28 -5 -25 31 4 34 29 35 29 48 9 7 -11 19
-17 27 -14 9 4 14 -1 14 -14 0 -25 8 -25 28 1 11 13 23 18 35 14 15 -6 17 -25
18 -179 0 -94 3 -188 7 -209 4 -21 8 68 8 198 1 130 4 238 6 240 3 3 24 8 47
11 l42 6 -6 -168 c-3 -92 -8 -170 -10 -174 -2 -4 3 -38 11 -76 10 -46 16 -136
17 -267 l2 -197 -52 0 -52 0 -4 93 -3 92 -2 -97 -2 -97 33 -4 32 -3 -32 -13
c-38 -15 -43 -30 -10 -32 12 -1 31 -3 42 -5 67 -10 219 -6 254 8 17 6 27 5 31
-3 5 -7 14 -8 26 -2 11 4 80 8 154 8 78 0 138 4 143 10 6 6 10 6 14 -2 3 -10
10 -9 26 2 17 10 37 12 87 6 43 -5 67 -5 72 2 4 8 11 7 20 0 7 -6 38 -9 68 -7
30 3 91 6 135 7 44 2 85 6 90 9 6 3 40 5 77 4 36 0 64 2 61 7 -2 4 3 7 11 7 8
0 18 -5 21 -10 5 -8 12 -7 22 1 11 10 16 10 22 1 4 -7 24 -10 52 -7 42 4 165
8 218 6 13 -1 21 -4 18 -8 -4 -3 -2 -12 4 -20 14 -16 5 -17 -22 -2 -15 8 -26
7 -43 -4 -36 -24 -99 -39 -107 -25 -5 8 -15 6 -36 -7 -16 -11 -48 -19 -76 -20
-27 -1 -52 -6 -55 -12 -9 -15 -44 -20 -61 -9 -9 6 -19 1 -32 -15 -17 -22 -19
-22 -19 -5 0 16 -3 17 -12 8 -7 -7 -20 -12 -30 -12 -10 0 -17 -6 -16 -12 2 -7
-8 -14 -22 -16 -14 -2 -31 -8 -37 -14 -7 -6 -19 -8 -27 -5 -17 7 -100 -46
-121 -76 -13 -19 -13 -22 1 -30 10 -6 26 -5 41 2 14 7 31 8 41 2 9 -4 34 -9
55 -9 21 -1 42 -4 47 -7 5 -3 12 0 16 6 5 8 9 8 14 -2 10 -15 89 -18 109 -4
10 7 16 6 19 -3 3 -10 8 -8 18 5 7 10 14 13 14 6 0 -6 27 -20 60 -30 33 -9 60
-20 60 -23 0 -4 -20 -17 -45 -29 -60 -30 -101 -66 -132 -114 -27 -42 -25 -67
6 -67 10 0 22 -7 25 -15 4 -12 10 -14 25 -5 12 6 18 16 15 25 -3 8 -2 20 2 27
5 7 10 22 11 33 3 18 40 55 53 53 3 -1 21 6 41 15 19 9 47 19 61 22 15 4 34
15 43 25 16 17 23 88 12 107 -3 5 -38 8 -77 6 -44 -2 -70 1 -70 8 0 6 -12 9
-27 7 -23 -2 -29 1 -31 20 -3 23 -4 23 -23 6 -10 -9 -22 -15 -25 -11 -3 3 -21
-3 -40 -14 -19 -10 -34 -15 -34 -10 0 5 -8 7 -19 4 -10 -3 -22 0 -25 6 -4 6
-20 8 -38 4 -53 -10 -28 19 28 33 27 6 62 16 77 23 16 6 33 8 38 5 14 -9 55 3
73 21 12 12 20 14 36 5 14 -8 26 -8 41 1 11 6 44 13 72 16 65 7 102 18 100 29
-1 5 33 9 75 9 43 -1 85 3 96 8 12 6 21 5 25 -1 4 -7 19 -8 42 -3 19 4 52 6
72 4 21 -2 37 1 37 7 0 13 51 13 85 0 17 -6 41 -7 70 0 30 7 53 6 72 -1 38
-15 112 -19 119 -7 4 6 10 5 14 -3 11 -16 261 -33 274 -18 2 2 6 21 9 41 5 33
3 38 -14 38 -11 0 -17 5 -14 10 4 6 10 8 14 6 4 -3 13 -1 21 4 12 8 15 42 16
175 1 91 -1 163 -5 160 -3 -4 -6 -76 -6 -160 0 -84 -2 -156 -5 -159 -3 -3 -25
-8 -48 -12 -41 -6 -42 -6 -43 22 l-1 29 -7 -30 c-6 -30 -9 -31 -62 -27 -18 2
-20 7 -16 54 2 29 0 89 -4 133 -4 44 -3 111 2 149 11 78 6 86 -48 86 -57 0
-44 18 23 30 49 9 68 10 77 1 18 -18 31 -13 14 7 -18 20 -21 78 -6 145 18 80
30 54 27 -60 l-3 -106 -35 -14 -35 -13 37 5 c35 5 37 4 41 -27 2 -18 5 17 5
78 4 219 14 354 28 354 7 0 17 -15 22 -32 l8 -33 15 30 c23 48 43 38 50 -25 3
-30 6 -47 7 -36 2 15 5 16 17 6 8 -6 19 -9 25 -5 5 3 14 -4 19 -17 8 -22 9
-22 26 11 13 25 19 30 25 20 7 -11 10 -10 15 3 10 25 62 21 69 -6 5 -18 8 -17
39 19 l34 39 12 -52 c7 -29 17 -49 22 -46 5 3 9 41 9 84 0 59 -6 96 -24 142
-38 101 -133 284 -143 274 -2 -2 6 -21 19 -43 89 -144 138 -276 137 -367 l-1
-61 -22 70 c-35 111 -42 117 -49 47 -6 -73 -18 -98 -28 -62 -4 14 -8 39 -8 55
-1 17 -8 44 -15 60 l-13 30 -1 -41 c-1 -23 -8 -55 -15 -73 -13 -32 -14 -31
-26 56 -22 153 -58 284 -106 385 -25 54 -50 100 -56 103 -13 9 -11 0 10 -48
22 -50 43 -111 67 -192 19 -66 23 -242 7 -283 -8 -22 -11 -18 -26 35 -9 32
-23 67 -31 78 -15 19 -15 19 -16 -8 0 -40 -29 -137 -41 -137 -5 0 -9 7 -9 15
0 34 -73 165 -92 165 -4 0 -8 -26 -8 -58 0 -33 -6 -66 -13 -77 -13 -16 -15
-14 -25 26 -6 25 -22 55 -35 67 l-24 23 -6 -42 c-3 -23 -12 -48 -20 -56 -12
-13 -16 -8 -31 38 -19 56 -43 99 -57 99 -5 0 -9 -17 -9 -37 -1 -21 -9 -53 -19
-72 l-18 -34 -7 64 c-10 104 -39 216 -106 419 -30 91 -80 213 -92 225 -5 6 0
-15 12 -45 65 -168 73 -199 96 -353 19 -135 15 -199 -17 -275 l-22 -53 -17 50
c-9 27 -30 67 -46 88 l-29 38 -7 -58 c-12 -93 -21 -99 -53 -36 -28 57 -52 89
-67 89 -4 0 -8 -29 -8 -64 0 -35 -6 -78 -14 -96 -12 -30 -14 -32 -23 -14 -6
10 -16 37 -23 59 -15 48 -44 91 -71 106 -18 9 -19 7 -13 -16 6 -26 -13 -115
-25 -115 -4 0 -12 15 -19 33 -6 17 -26 50 -44 71 l-32 39 -20 -44 -21 -44 -2
50 c-6 114 -115 615 -134 615 -5 0 -4 -12 2 -27 26 -68 52 -203 50 -263 -1
-70 -38 -331 -51 -365 -7 -16 -9 -13 -15 22 -12 68 -30 73 -62 19 -30 -49 -43
-57 -43 -26 0 27 -21 70 -35 70 -6 0 -22 -22 -34 -50 -12 -27 -26 -50 -30 -50
-4 0 -13 17 -19 38 -15 47 -51 96 -52 69 0 -24 -28 -77 -40 -77 -5 0 -19 18
-30 40 -32 64 -38 57 -54 -62 -3 -23 1 -43 10 -55 14 -16 14 -15 8 17 -3 19
-3 32 1 28 5 -5 7 -153 5 -330 -2 -178 -4 -359 -4 -403 -1 -44 3 -96 7 -116
l8 -35 -56 -1 c-34 0 -58 4 -60 11 -2 6 -6 102 -9 214 l-5 202 55 0 56 0 -6
148 -6 147 -58 3 -58 3 1 80 0 81 53 -4 c43 -4 52 -2 47 10 -10 27 -21 87 -24
137 -1 12 -71 -91 -71 -105 0 -5 -4 -10 -10 -10 -27 0 5 249 54 418 20 68 41
132 47 143 20 39 38 99 30 103 -4 3 -25 -29 -46 -72z m-698 -740 l11 -117 -5
123 -5 122 57 0 57 0 -7 -97 c-9 -137 -9 -155 -2 -273 4 -58 9 -203 12 -323
l5 -218 -42 3 -43 3 -1 100 c0 104 -24 547 -30 554 -5 6 4 -418 11 -536 l7
-113 -39 0 -40 0 -8 73 c-4 39 -9 146 -10 237 -2 91 -7 258 -10 372 l-7 207
33 3 c19 2 36 2 39 0 3 -2 10 -56 17 -120z m248 93 c3 -16 5 -73 4 -125 0 -52
2 -212 6 -354 4 -142 4 -287 0 -321 -7 -69 -17 -77 -83 -67 l-30 4 -6 181 c-4
100 -9 256 -12 347 -4 108 -2 200 6 267 l13 103 48 -2 c46 -2 49 -4 54 -33z
m129 3 c6 -37 19 -279 19 -348 0 -25 -1 -145 -2 -266 -1 -122 -1 -227 1 -235
2 -10 -12 -15 -50 -19 -30 -3 -55 -3 -57 1 -8 11 -18 846 -11 873 6 23 11 26
51 26 42 0 44 -1 49 -32z m113 -55 l-2 -88 -36 -3 c-32 -3 -37 0 -47 25 -6 15
-13 56 -15 91 l-5 62 54 0 54 0 -3 -87z m91 77 c20 0 22 -5 22 -55 0 -31 -7
-69 -16 -86 -13 -25 -20 -30 -47 -27 l-32 3 -3 74 c-4 91 1 105 31 97 12 -3
32 -6 45 -6z m-684 -122 c4 -68 9 -235 11 -373 2 -137 7 -283 11 -322 l6 -73
-45 0 c-55 0 -55 -2 -56 210 -1 85 -6 201 -12 257 -8 77 -8 299 0 405 1 6 17
10 67 17 7 0 14 -41 18 -121z m1004 -295 c-1 -225 1 -423 6 -440 l8 -33 -66 0
c-63 0 -66 1 -72 27 -4 14 -4 128 -1 252 4 124 3 276 -2 336 -6 61 -7 145 -4
188 l6 77 64 0 63 0 -2 -407z m142 400 c0 -5 27 -7 61 -6 l61 2 -8 -42 c-4
-23 -7 -216 -6 -429 l2 -387 -28 -3 c-15 -2 -40 -1 -55 1 -28 3 -29 5 -22 50
8 51 7 211 -1 281 -2 25 -1 91 3 148 5 57 6 105 2 107 -8 5 -19 -172 -25 -405
-3 -96 -6 -175 -7 -176 -1 -1 -23 -4 -49 -8 l-46 -7 -6 103 c-12 196 -4 534
15 686 l12 92 48 0 c27 0 49 -3 49 -7z m202 -33 l-3 -25 25 29 c32 38 46 26
45 -37 0 -55 -13 -144 -21 -152 -2 -3 -32 -2 -65 1 l-59 6 7 57 c4 31 11 78
14 104 6 45 8 48 33 45 22 -2 27 -7 24 -28z m153 0 c8 -26 19 -25 33 3 8 17
11 18 11 5 1 -20 21 -25 21 -5 0 8 11 13 27 12 23 0 29 -7 43 -47 17 -56 26
-60 35 -18 8 38 25 49 25 17 0 -43 -20 -131 -33 -144 -8 -8 -29 -10 -67 -5
-54 7 -55 8 -52 37 l2 30 -14 -32 c-14 -31 -18 -33 -67 -33 l-52 0 7 53 c3 28
6 73 6 100 0 47 0 47 34 47 26 0 36 -5 41 -20z m283 -12 c9 -9 12 -9 12 1 0 8
12 11 37 9 l38 -3 -4 -170 c-1 -93 -4 -172 -6 -176 -2 -3 -6 -108 -9 -234 -6
-261 -10 -275 -74 -275 -85 0 -78 -23 -81 288 -1 152 1 343 5 425 l7 147 31 0
c18 0 37 -5 44 -12z m122 -38 c5 0 14 9 20 20 8 15 21 20 54 20 39 0 45 -3 50
-26 4 -15 2 -106 -3 -203 -6 -97 -16 -270 -22 -386 -6 -115 -13 -213 -16 -217
-2 -5 -33 -8 -68 -8 l-63 0 5 163 c2 89 9 184 14 212 5 27 7 91 3 141 -6 86 6
355 14 307 2 -13 7 -23 12 -23z m238 21 c6 0 12 -7 12 -15 0 -8 4 -16 8 -18 5
-1 4 -95 -1 -208 -11 -258 -11 -247 -8 -295 7 -93 -2 -275 -13 -283 -6 -5 -38
-7 -70 -4 l-59 5 7 96 c4 53 9 173 10 266 1 94 8 236 16 317 l14 147 35 -3
c20 -2 42 -4 49 -5z m96 -7 c13 -5 16 -23 16 -89 0 -76 -2 -83 -22 -88 -38
-10 -55 7 -53 55 1 24 2 62 3 86 2 43 15 52 56 36z m116 -89 l0 -85 -45 0 -45
0 0 54 c0 71 24 116 63 116 l27 0 0 -85z m-1800 -123 c0 -112 -7 -142 -32
-142 -10 0 -11 244 -1 253 3 4 12 7 20 7 10 0 13 -26 13 -118z m-53 76 c-3 -7
-5 -2 -5 12 0 14 2 19 5 13 2 -7 2 -19 0 -25z m333 -218 c0 -6 -55 -10 -146
-10 -94 0 -143 4 -139 10 4 6 63 10 146 10 86 0 139 -4 139 -10z m-227 -142
c4 -66 7 -166 7 -221 l0 -99 -31 6 c-17 3 -40 6 -50 6 -18 0 -19 11 -19 208 0
115 3 212 7 215 3 4 23 7 43 7 l37 0 6 -122z m111 75 c5 -46 11 -313 8 -360
-2 -21 -7 -23 -52 -23 l-50 0 0 118 c0 64 -3 161 -7 215 l-6 97 51 0 50 0 6
-47z m1519 -161 c3 -87 3 -177 0 -200 -5 -40 -7 -42 -39 -42 l-34 0 1 200 0
200 33 0 33 0 6 -158z m-1096 -154 c-3 -7 -5 -2 -5 12 0 14 2 19 5 13 2 -7 2
-19 0 -25z m463 -108 c0 -5 -7 -7 -15 -4 -8 4 -15 8 -15 10 0 2 7 4 15 4 8 0
15 -4 15 -10z"/>
<path d="M2543 1880 c0 -30 2 -43 4 -27 2 15 2 39 0 55 -2 15 -4 2 -4 -28z"/>
<path d="M2551 1763 c0 -35 2 -63 7 -63 4 0 6 21 4 48 -5 75 -10 82 -11 15z"/>
<path d="M2961 1879 c-6 -18 -11 -39 -10 -48 1 -9 7 4 15 28 16 51 12 68 -5
20z"/>
<path d="M1140 2468 c-12 -22 -12 -22 6 -6 10 10 15 20 12 24 -4 3 -12 -5 -18
-18z"/>
<path d="M3880 2486 c0 -6 131 -199 143 -211 14 -14 3 5 -70 118 -55 85 -73
108 -73 93z"/>
<path d="M1097 2398 c-39 -67 -144 -280 -152 -308 -3 -14 26 40 65 119 39 79
83 161 96 183 14 22 23 42 21 44 -3 3 -16 -14 -30 -38z"/>
<path d="M930 2059 c0 -2 -9 -29 -20 -59 -25 -67 -25 -67 0 -45 12 10 18 25
16 32 -3 7 -1 25 5 39 5 15 7 29 4 32 -3 3 -5 3 -5 1z"/>
<path d="M4434 1859 c-5 -8 -2 -10 8 -6 9 3 21 0 28 -6 10 -9 11 -9 8 3 -6 19
-34 25 -44 9z"/>
<path d="M3882 1730 c0 -19 2 -27 5 -17 2 9 2 25 0 35 -3 9 -5 1 -5 -18z"/>
<path d="M3867 1552 c-5 -74 -6 -136 -4 -139 7 -7 19 174 15 227 -1 25 -7 -15
-11 -88z"/>
<path d="M1203 1385 c0 -27 2 -38 4 -22 2 15 2 37 0 50 -2 12 -4 0 -4 -28z"/>
<path d="M1191 1314 c0 -11 3 -14 6 -6 3 7 2 16 -1 19 -3 4 -6 -2 -5 -13z"/>
<path d="M3752 1220 c0 -19 2 -27 5 -17 2 9 2 25 0 35 -3 9 -5 1 -5 -18z"/>
</g>
</svg>
